<svg width="160" height="102" viewBox="0 0 160 102" fill="none" xmlns="http://www.w3.org/2000/svg">
<path d="M1.78223 44L15.3322 9H20.8322L34.2822 44H28.5322L20.5322 22.9C20.4322 22.6667 20.2322 22.1 19.9322 21.2C19.6656 20.3 19.3489 19.3 18.9822 18.2C18.6156 17.1 18.2822 16.1 17.9822 15.2C17.6822 14.2667 17.4822 13.6667 17.3822 13.4L18.5322 13.35C18.3322 13.9167 18.0822 14.6333 17.7822 15.5C17.5156 16.3667 17.2156 17.2833 16.8822 18.25C16.5822 19.2167 16.2822 20.1333 15.9822 21C15.6822 21.8333 15.4322 22.5333 15.2322 23.1L7.28223 44H1.78223ZM7.78223 35.3L9.78223 30.1H25.6822L27.9822 35.3H7.78223ZM42.1479 44V11.05H47.2979V44H42.1479ZM36.6979 22.75V17.75H53.3979V22.75H36.6979ZM70.0932 44.5C67.3932 44.5 64.9932 43.9333 62.8932 42.8C60.8265 41.6333 59.1932 40.05 57.9932 38.05C56.8265 36.05 56.2432 33.75 56.2432 31.15C56.2432 29.0833 56.5765 27.2 57.2432 25.5C57.9098 23.8 58.8265 22.3333 59.9932 21.1C61.1932 19.8333 62.6098 18.8667 64.2432 18.2C65.9098 17.5 67.7098 17.15 69.6432 17.15C71.3432 17.15 72.9265 17.4833 74.3932 18.15C75.8598 18.7833 77.1265 19.6667 78.1932 20.8C79.2932 21.9333 80.1265 23.2833 80.6932 24.85C81.2932 26.3833 81.5765 28.0667 81.5432 29.9L81.4932 32.1H60.0432L58.8932 28H77.0432L76.2932 28.85V27.65C76.1932 26.55 75.8265 25.5667 75.1932 24.7C74.5598 23.8333 73.7598 23.15 72.7932 22.65C71.8265 22.15 70.7765 21.9 69.6432 21.9C67.8432 21.9 66.3265 22.25 65.0932 22.95C63.8598 23.6167 62.9265 24.6167 62.2932 25.95C61.6598 27.25 61.3432 28.8667 61.3432 30.8C61.3432 32.6333 61.7265 34.2333 62.4932 35.6C63.2598 36.9333 64.3432 37.9667 65.7432 38.7C67.1432 39.4333 68.7598 39.8 70.5932 39.8C71.8932 39.8 73.0932 39.5833 74.1932 39.15C75.3265 38.7167 76.5432 37.9333 77.8432 36.8L80.4432 40.45C79.6432 41.25 78.6598 41.95 77.4932 42.55C76.3598 43.15 75.1432 43.6333 73.8432 44C72.5765 44.3333 71.3265 44.5 70.0932 44.5ZM87.24 44V7H92.39V44H87.24ZM100.539 44V17.75H105.689V44H100.539ZM103.039 11.95C101.939 11.95 101.089 11.6667 100.489 11.1C99.8889 10.5333 99.5889 9.73333 99.5889 8.7C99.5889 7.73333 99.8889 6.95 100.489 6.35C101.122 5.75 101.972 5.45 103.039 5.45C104.139 5.45 104.989 5.73333 105.589 6.3C106.189 6.86666 106.489 7.66666 106.489 8.7C106.489 9.66666 106.172 10.45 105.539 11.05C104.939 11.65 104.106 11.95 103.039 11.95ZM125.855 44.5C123.155 44.5 120.755 43.9333 118.655 42.8C116.588 41.6333 114.955 40.05 113.755 38.05C112.588 36.05 112.005 33.75 112.005 31.15C112.005 29.0833 112.338 27.2 113.005 25.5C113.672 23.8 114.588 22.3333 115.755 21.1C116.955 19.8333 118.372 18.8667 120.005 18.2C121.672 17.5 123.472 17.15 125.405 17.15C127.105 17.15 128.688 17.4833 130.155 18.15C131.622 18.7833 132.888 19.6667 133.955 20.8C135.055 21.9333 135.888 23.2833 136.455 24.85C137.055 26.3833 137.338 28.0667 137.305 29.9L137.255 32.1H115.805L114.655 28H132.805L132.055 28.85V27.65C131.955 26.55 131.588 25.5667 130.955 24.7C130.322 23.8333 129.522 23.15 128.555 22.65C127.588 22.15 126.538 21.9 125.405 21.9C123.605 21.9 122.088 22.25 120.855 22.95C119.622 23.6167 118.688 24.6167 118.055 25.95C117.422 27.25 117.105 28.8667 117.105 30.8C117.105 32.6333 117.488 34.2333 118.255 35.6C119.022 36.9333 120.105 37.9667 121.505 38.7C122.905 39.4333 124.522 39.8 126.355 39.8C127.655 39.8 128.855 39.5833 129.955 39.15C131.088 38.7167 132.305 37.9333 133.605 36.8L136.205 40.45C135.405 41.25 134.422 41.95 133.255 42.55C132.122 43.15 130.905 43.6333 129.605 44C128.338 44.3333 127.088 44.5 125.855 44.5ZM142.902 44V17.75H148.102V26L147.602 24C147.968 22.7333 148.585 21.5833 149.452 20.55C150.352 19.5167 151.368 18.7 152.502 18.1C153.668 17.5 154.868 17.2 156.102 17.2C156.668 17.2 157.202 17.25 157.702 17.35C158.235 17.45 158.652 17.5667 158.952 17.7L157.602 23.3C157.202 23.1333 156.752 23 156.252 22.9C155.785 22.7667 155.318 22.7 154.852 22.7C153.952 22.7 153.085 22.8833 152.252 23.25C151.452 23.5833 150.735 24.0667 150.102 24.7C149.502 25.3 149.018 26.0167 148.652 26.85C148.285 27.65 148.102 28.5333 148.102 29.5V44H142.902Z" fill="#FF9B54"/>
<path d="M12.2 95.916L1.1 69.666H6.65L14.65 89.316L13.7 89.766L22.25 69.666H27.55L15.9 95.916H12.2ZM43.3297 96.416C40.763 96.416 38.463 95.8327 36.4297 94.666C34.4297 93.466 32.8464 91.8493 31.6797 89.816C30.513 87.7493 29.9297 85.3993 29.9297 82.766C29.9297 80.1327 30.513 77.7993 31.6797 75.766C32.8464 73.6993 34.4297 72.0827 36.4297 70.916C38.463 69.716 40.763 69.116 43.3297 69.116C45.863 69.116 48.1297 69.716 50.1297 70.916C52.163 72.0827 53.763 73.6993 54.9297 75.766C56.0964 77.7993 56.6797 80.1327 56.6797 82.766C56.6797 85.3993 56.0964 87.7493 54.9297 89.816C53.763 91.8493 52.163 93.466 50.1297 94.666C48.1297 95.8327 45.863 96.416 43.3297 96.416ZM43.3297 91.716C44.8964 91.716 46.2964 91.3327 47.5297 90.566C48.763 89.766 49.7297 88.6993 50.4297 87.366C51.1297 85.9993 51.463 84.466 51.4297 82.766C51.463 81.0327 51.1297 79.4993 50.4297 78.166C49.7297 76.7993 48.763 75.7327 47.5297 74.966C46.2964 74.1993 44.8964 73.816 43.3297 73.816C41.763 73.816 40.3464 74.216 39.0797 75.016C37.8464 75.7827 36.8797 76.8493 36.1797 78.216C35.4797 79.5493 35.1464 81.066 35.1797 82.766C35.1464 84.466 35.4797 85.9993 36.1797 87.366C36.8797 88.6993 37.8464 89.766 39.0797 90.566C40.3464 91.3327 41.763 91.716 43.3297 91.716ZM63.1414 95.916V69.666H68.2914V95.916H63.1414ZM65.6414 63.866C64.5414 63.866 63.6914 63.5827 63.0914 63.016C62.4914 62.4493 62.1914 61.6493 62.1914 60.616C62.1914 59.6493 62.4914 58.866 63.0914 58.266C63.7247 57.666 64.5747 57.366 65.6414 57.366C66.7414 57.366 67.5914 57.6493 68.1914 58.216C68.7914 58.7827 69.0914 59.5827 69.0914 60.616C69.0914 61.5827 68.7747 62.366 68.1414 62.966C67.5414 63.566 66.7081 63.866 65.6414 63.866ZM84.9574 96.416C82.7574 96.416 80.7741 96.0327 79.0074 95.266C77.2408 94.4993 75.7741 93.366 74.6074 91.866L78.1074 88.866C79.1074 90.0327 80.1908 90.8827 81.3574 91.416C82.5574 91.916 83.9074 92.166 85.4074 92.166C86.0074 92.166 86.5574 92.0993 87.0574 91.966C87.5908 91.7993 88.0408 91.566 88.4074 91.266C88.8074 90.966 89.1074 90.616 89.3074 90.216C89.5074 89.7827 89.6074 89.316 89.6074 88.816C89.6074 87.9493 89.2908 87.2493 88.6574 86.716C88.3241 86.4827 87.7908 86.2327 87.0574 85.966C86.3574 85.666 85.4408 85.366 84.3074 85.066C82.3741 84.566 80.7908 83.9993 79.5574 83.366C78.3241 82.7327 77.3741 82.016 76.7074 81.216C76.2074 80.5827 75.8408 79.8993 75.6074 79.166C75.3741 78.3993 75.2574 77.566 75.2574 76.666C75.2574 75.566 75.4908 74.566 75.9574 73.666C76.4574 72.7327 77.1241 71.9327 77.9574 71.266C78.8241 70.566 79.8241 70.0327 80.9574 69.666C82.1241 69.2993 83.3574 69.116 84.6574 69.116C85.8908 69.116 87.1074 69.2827 88.3074 69.616C89.5408 69.9493 90.6741 70.4327 91.7074 71.066C92.7408 71.6993 93.6074 72.4493 94.3074 73.316L91.3574 76.566C90.7241 75.9327 90.0241 75.3827 89.2574 74.916C88.5241 74.416 87.7741 74.0327 87.0074 73.766C86.2408 73.4993 85.5408 73.366 84.9074 73.366C84.2074 73.366 83.5741 73.4327 83.0074 73.566C82.4408 73.6993 81.9574 73.8993 81.5574 74.166C81.1908 74.4327 80.9074 74.766 80.7074 75.166C80.5074 75.566 80.4074 76.016 80.4074 76.516C80.4408 76.9493 80.5408 77.366 80.7074 77.766C80.9074 78.1327 81.1741 78.4493 81.5074 78.716C81.8741 78.9827 82.4241 79.266 83.1574 79.566C83.8908 79.866 84.8241 80.1493 85.9574 80.416C87.6241 80.8493 88.9908 81.3327 90.0574 81.866C91.1574 82.366 92.0241 82.9493 92.6574 83.616C93.3241 84.2493 93.7908 84.9827 94.0574 85.816C94.3241 86.6493 94.4574 87.5827 94.4574 88.616C94.4574 90.116 94.0241 91.466 93.1574 92.666C92.3241 93.8327 91.1908 94.7493 89.7574 95.416C88.3241 96.0827 86.7241 96.416 84.9574 96.416Z" fill="#FF9B54"/>
<path d="M116.6 95.916V69.666H121.75V75.066L120.85 75.666C121.183 74.4993 121.833 73.4327 122.8 72.466C123.766 71.466 124.916 70.666 126.25 70.066C127.583 69.4327 128.95 69.116 130.35 69.116C132.35 69.116 134.016 69.516 135.35 70.316C136.683 71.0827 137.683 72.266 138.35 73.866C139.016 75.466 139.35 77.4827 139.35 79.916V95.916H134.2V80.266C134.2 78.766 134 77.5327 133.6 76.566C133.2 75.566 132.583 74.8493 131.75 74.416C130.916 73.9493 129.883 73.7493 128.65 73.816C127.65 73.816 126.733 73.9827 125.9 74.316C125.066 74.616 124.333 75.0493 123.7 75.616C123.1 76.1827 122.616 76.8493 122.25 77.616C121.916 78.3493 121.75 79.1493 121.75 80.016V95.916H119.2C118.766 95.916 118.333 95.916 117.9 95.916C117.466 95.916 117.033 95.916 116.6 95.916Z" fill="#FF9B54"/>
<rect x="100.522" y="32.7236" width="5.13696" height="63.1924" fill="#FF9B54"/>
</svg>
