<svg width="231" height="90" viewBox="0 0 231 90" fill="none" xmlns="http://www.w3.org/2000/svg">
<path d="M0 45.8789C0 39.4336 0.849609 33.457 2.54883 27.9492C4.24805 22.3828 6.88477 17.5195 10.459 13.3594C18.1934 4.45312 29.2676 0 43.6816 0H50.4492V89.6484H45.8789C31.1133 89.6484 19.6875 85.6055 11.6016 77.5195C3.86719 69.7852 0 59.2383 0 45.8789Z" fill="#FF9B54"/>
<path d="M62.457 0H110.973V89.6484H105.436C90.2012 89.6484 79.2441 86.9824 72.5645 81.6504C65.8262 76.2598 62.457 67.3535 62.457 54.9316V0Z" fill="#FF9B54"/>
<path d="M165.891 89.6484C151.184 89.6484 140.227 84.5215 133.02 74.2676C126.34 64.7754 123 51.0938 123 33.2227V0H128.361C143.479 0 154.465 2.92969 161.32 8.78906C168 14.6484 171.34 24.1406 171.34 37.2656V89.6484H165.891Z" fill="#FF9B54"/>
<path d="M182.633 37.2656C182.633 24.1406 185.973 14.6484 192.652 8.78906C199.508 2.92969 210.494 0 225.611 0H230.973V33.2227C230.973 60.4688 223.18 77.9297 207.594 85.6055C202.145 88.3008 195.611 89.6484 187.994 89.6484H182.633V37.2656Z" fill="#FF9B54"/>
</svg>
